<svg id="svg" version="1.1" xmlns="http://www.w3.org/2000/svg" xmlns:xlink="http://www.w3.org/1999/xlink" width="400" height="400" viewBox="0, 0, 400,400"><g id="svgg"><path id="path0" d="M137.595 149.500 C 115.647 156.700,123.184 187.651,146.120 184.508 C 168.584 181.429,167.544 150.244,144.940 149.110 C 142.003 148.962,138.698 149.138,137.595 149.500 M213.927 150.088 C 202.397 154.178,198.632 169.812,207.042 178.673 C 214.428 186.455,228.255 186.563,235.622 178.896 C 249.413 164.545,233.339 143.201,213.927 150.088 M260.598 149.892 C 242.524 156.637,245.790 181.864,265.080 184.508 C 282.538 186.900,293.687 167.266,282.106 154.522 C 277.773 149.753,267.118 147.459,260.598 149.892 M43.200 166.800 L 43.200 184.000 48.400 184.000 L 53.600 184.000 53.600 177.200 L 53.600 170.400 60.000 170.400 L 66.400 170.400 66.400 177.200 L 66.400 184.000 71.200 184.000 L 76.000 184.000 76.000 166.800 L 76.000 149.600 71.200 149.600 L 66.400 149.600 66.400 156.000 L 66.400 162.400 60.000 162.400 L 53.600 162.400 53.600 156.000 L 53.600 149.600 48.400 149.600 L 43.200 149.600 43.200 166.800 M90.028 160.893 L 96.800 172.259 96.800 178.129 L 96.800 184.000 101.600 184.000 L 106.400 184.000 106.400 177.665 C 106.400 170.942,106.852 169.926,117.734 152.200 L 119.330 149.600 114.541 149.600 L 109.752 149.600 106.000 156.000 C 101.459 163.746,102.006 163.734,97.567 156.182 L 93.935 150.000 88.595 149.764 L 83.256 149.528 90.028 160.893 M171.200 153.200 L 171.200 156.800 177.200 156.800 L 183.200 156.800 183.200 165.840 C 183.200 177.049,180.805 179.780,174.987 175.204 L 172.958 173.608 170.372 176.554 L 167.786 179.499 169.906 181.322 C 174.157 184.979,183.275 185.708,187.786 182.752 C 192.203 179.857,192.794 177.530,192.797 163.000 L 192.800 149.600 182.000 149.600 L 171.200 149.600 171.200 153.200 M296.000 166.800 L 296.000 184.000 300.800 184.000 L 305.600 184.000 305.600 175.200 C 305.600 164.515,305.189 164.513,313.970 175.241 L 321.141 184.000 324.970 184.000 L 328.800 184.000 328.800 166.800 L 328.800 149.600 324.000 149.600 L 319.200 149.600 319.200 158.491 L 319.200 167.382 311.826 158.491 L 304.451 149.600 300.226 149.600 L 296.000 149.600 296.000 166.800 M148.026 158.014 C 153.312 160.747,154.337 169.073,149.951 173.651 C 144.019 179.843,134.400 175.605,134.400 166.800 C 134.400 159.137,141.431 154.603,148.026 158.014 M227.659 159.255 C 231.897 163.237,231.648 171.232,227.181 174.544 C 217.324 181.855,206.602 167.670,215.663 159.306 C 219.178 156.062,224.236 156.040,227.659 159.255 M272.620 158.403 C 278.842 162.197,278.097 172.937,271.418 175.728 C 265.583 178.166,259.495 174.536,258.633 168.104 C 257.486 159.558,265.453 154.033,272.620 158.403 M43.200 220.400 L 43.200 237.600 48.000 237.600 L 52.800 237.600 52.800 233.339 C 52.800 229.920,53.166 228.735,54.652 227.339 C 57.127 225.014,56.769 224.805,61.974 231.600 L 66.569 237.600 72.132 237.600 C 76.365 237.600,77.553 237.361,77.102 236.600 C 76.776 236.050,73.479 231.687,69.776 226.904 L 63.043 218.209 66.930 214.104 C 69.067 211.847,72.235 208.470,73.970 206.600 L 77.125 203.200 71.562 203.277 L 66.000 203.354 60.000 210.016 C 52.590 218.244,52.800 218.244,52.800 210.000 L 52.800 203.200 48.000 203.200 L 43.200 203.200 43.200 220.400 M84.800 220.400 L 84.800 237.600 89.600 237.600 L 94.400 237.600 94.400 220.400 L 94.400 203.200 89.600 203.200 L 84.800 203.200 84.800 220.400 M106.400 220.400 L 106.400 237.600 110.773 237.600 L 115.146 237.600 115.373 229.045 L 115.600 220.490 119.889 227.489 C 125.522 236.682,126.699 236.704,132.085 227.715 C 137.654 218.419,137.600 218.410,137.600 228.640 L 137.600 237.600 142.000 237.600 L 146.400 237.600 146.400 220.400 L 146.400 203.200 142.163 203.200 L 137.925 203.200 132.363 212.790 C 129.303 218.064,126.576 222.384,126.303 222.390 C 126.030 222.395,123.223 218.080,120.066 212.800 L 114.325 203.200 110.363 203.200 L 106.400 203.200 106.400 220.400 M40.000 256.000 L 40.000 260.800 186.400 260.800 L 332.800 260.800 332.800 256.000 L 332.800 251.200 186.400 251.200 L 40.000 251.200 40.000 256.000 " stroke="none" fill="#000000" fill-rule="evenodd"></path></g></svg>